<svg width="144" height="144" viewBox="0 0 144 144" fill="none" xmlns="http://www.w3.org/2000/svg">
<rect width="144" height="144" rx="20" fill="#791E94"/>
<path d="M39.7 106.8C43.9333 106.8 47.3833 105.317 50.05 102.35C52.75 99.3833 54.1 95.5667 54.1 90.9V80.8H44V90.9C44 94.5 42.6333 96.3 39.9 96.3C38.8333 96.3 37.9333 95.8167 37.2 94.85C36.4667 93.85 36.1 92.5333 36.1 90.9V47.6C36.1 45.9333 36.4333 44.6167 37.1 43.65C37.8 42.6833 38.7333 42.2 39.9 42.2C42.6333 42.2 44 44 44 47.6V57.7H54.1V47.6C54.1 42.8333 52.7667 39 50.1 36.1C47.4667 33.1667 44 31.7 39.7 31.7C35.3333 31.7 31.8333 33.15 29.2 36.05C26.6 38.9167 25.3 42.7667 25.3 47.6V90.9C25.3 95.8333 26.6333 99.7167 29.3 102.55C31.9667 105.383 35.4333 106.8 39.7 106.8Z" fill="white"/>
<path d="M83.1 106H91.5L96.5 71.2L97.1 66.9H97.5L98.1 71.2L103.1 106H111.5L121.4 32.5H111.4L107.1 70.7L106.9 73.1H106.1L105.8 70.7L101.2 32.5H93.4L88.8 70.7L88.5 73.1H87.7L87.5 70.7L83.2 32.5H73.2L83.1 106Z" fill="#FF9914"/>
<rect x="60" y="91" width="15" height="15" rx="7.5" fill="#41D3BD"/>
</svg>
